<svg xmlns="http://www.w3.org/2000/svg" viewBox="0 0 46 52" fill="none">
  <defs>
    <linearGradient id="h" x1="0" y1="0" x2="1" y2="1">
      <stop offset="0%" stop-color="#f43f5e"/>
      <stop offset="100%" stop-color="#e11d48"/>
    </linearGradient>
    <clipPath id="c">
      <path d="M23 48 C23 48 3 36 3 22 C3 14 9 8 16.5 8 C19.8 8 22.5 9.6 23 12 C23.5 9.6 26.2 8 29.5 8 C37 8 43 14 43 22 C43 36 23 48 23 48Z"/>
    </clipPath>
  </defs>
  <path d="M23 48 C23 48 3 36 3 22 C3 14 9 8 16.5 8 C19.8 8 22.5 9.6 23 12 C23.5 9.6 26.2 8 29.5 8 C37 8 43 14 43 22 C43 36 23 48 23 48Z" fill="url(#h)"/>
  <g clip-path="url(#c)">
    <line x1="3" y1="20" x2="43" y2="20" stroke="rgba(255,255,255,0.28)" stroke-width="1.5"/>
    <line x1="3" y1="28" x2="43" y2="28" stroke="rgba(255,255,255,0.2)" stroke-width="1.5"/>
    <line x1="3" y1="36" x2="43" y2="36" stroke="rgba(255,255,255,0.12)" stroke-width="1.5"/>
  </g>
  <rect x="14" y="3" width="4" height="9" rx="2" fill="white" opacity="0.85"/>
  <rect x="28" y="3" width="4" height="9" rx="2" fill="white" opacity="0.85"/>
</svg>
